<svg aria-hidden="true" style="position: absolute; width: 0; height: 0; overflow: hidden;" version="1.1" xmlns="http://www.w3.org/2000/svg" xmlns:xlink="http://www.w3.org/1999/xlink">
<defs>
<symbol id="icon-1" viewBox="0 0 16 32">
<path d="M6.611 28.617l0.135 0.904 0.779-0.117v-0.788h-0.914zM6.611 5.042h0.914v-0.914h-0.914v0.914zM1.386 5.042h-0.914v0.914h0.914v-0.914zM1.386 2.944v-0.914h-0.914v0.914h0.914zM3.69 2.738l0.141 0.903 0.014-0.002 0.014-0.003-0.168-0.899zM6.159 2.080l-0.298-0.864-0.009 0.003 0.308 0.861zM7.805 1.051v-0.914h-0.463l-0.274 0.374 0.737 0.541zM10.602 1.051h0.914v-0.914h-0.914v0.914zM10.602 28.617h-0.914v0.766l0.754 0.134 0.16-0.9zM15.005 29.399h0.914v-0.766l-0.754-0.134-0.16 0.9zM15.005 31.086v0.914h0.914v-0.914h-0.914zM1.386 31.086h-0.914v0.914h0.914v-0.914zM1.386 29.399l-0.135-0.904-0.779 0.117v0.788h0.914zM7.526 28.617v-23.575h-1.829v23.575h1.829zM6.611 4.128h-5.225v1.829h5.225v-1.829zM2.301 5.042v-2.098h-1.829v2.098h1.829zM1.386 3.858c0.719 0 1.536-0.075 2.445-0.217l-0.282-1.807c-0.846 0.132-1.565 0.195-2.163 0.195v1.829zM3.859 3.637c0.921-0.173 1.79-0.404 2.608-0.696l-0.615-1.722c-0.719 0.257-1.495 0.464-2.33 0.621l0.337 1.797zM6.457 2.944c0.868-0.299 1.623-0.722 2.085-1.352l-1.475-1.081c-0.141 0.192-0.483 0.456-1.206 0.705l0.596 1.729zM7.805 1.966h2.798v-1.829h-2.798v1.829zM9.688 1.051v27.566h1.829v-27.566h-1.829zM10.442 29.517l4.402 0.782 0.32-1.8-4.402-0.782-0.32 1.8zM14.090 29.399v1.687h1.829v-1.687h-1.829zM15.005 30.171h-13.618v1.829h13.618v-1.829zM2.301 31.086v-1.687h-1.829v1.687h1.829zM1.522 30.303l5.225-0.782-0.271-1.808-5.225 0.782 0.271 1.808z"></path>
</symbol>
<symbol id="icon-2" viewBox="0 0 22 32">
<path d="M4.746 27.177h-0.914v0.914h0.914v-0.914zM17.706 27.177v0.914h0.759l0.14-0.746-0.899-0.169zM18.693 21.911v-0.914h-0.759l-0.14 0.746 0.899 0.169zM20.956 21.911h0.914v-0.914h-0.914v0.914zM20.956 31.086v0.914h0.914v-0.914h-0.914zM1.413 31.086h-0.914v0.914h0.914v-0.914zM2.483 24.421l-0.774-0.486-0.004 0.007-0.004 0.007 0.782 0.473zM5.28 21.088l0.622 0.671 0.001-0.001-0.622-0.67zM8.901 18.002l-0.556-0.726-0.008 0.006 0.563 0.72zM12.522 14.999l-0.604-0.686-0.008 0.007 0.613 0.679zM15.319 11.749l-0.769-0.494-0.004 0.007-0.004 0.007 0.777 0.481zM14.908 4.466l-0.576 0.71 0.006 0.005 0.006 0.005 0.564-0.72zM4.663 7.223l-0.894-0.193-0.24 1.108h1.133v-0.914zM6.679 7.881v0zM6.679 11.584l0.627 0.666 0.010-0.009 0.010-0.010-0.646-0.646zM3.1 4.754l-0.758-0.511-0.003 0.004 0.761 0.507zM6.391 1.998l-0.383-0.83-0.006 0.003 0.389 0.827zM16.183 1.998l-0.396 0.824 0.006 0.003 0.389-0.827zM19.434 4.795l-0.771 0.491 0.005 0.008 0.766-0.499zM16.471 16.891l0.587 0.701 0.002-0.001-0.588-0.7zM12.645 19.648l0.477 0.78 0.004-0.003-0.482-0.777zM8.819 22.075l0.499 0.766 0.004-0.003-0.503-0.763zM5.898 24.462v0zM4.746 28.091h12.96v-1.829h-12.96v1.829zM18.604 27.346l0.987-5.266-1.797-0.337-0.987 5.266 1.797 0.337zM18.693 22.825h2.263v-1.829h-2.263v1.829zM20.042 21.911v9.175h1.829v-9.175h-1.829zM20.956 30.171h-19.543v1.829h19.543v-1.829zM2.327 31.086v-2.715h-1.829v2.715h1.829zM2.327 28.37c0-1.296 0.316-2.448 0.938-3.477l-1.565-0.946c-0.804 1.33-1.202 2.812-1.202 4.423h1.829zM3.257 24.907c0.694-1.105 1.573-2.155 2.645-3.148l-1.243-1.341c-1.178 1.091-2.163 2.263-2.95 3.517l1.549 0.972zM5.903 21.758c1.133-1.052 2.32-2.064 3.562-3.036l-1.127-1.44c-1.282 1.003-2.508 2.048-3.679 3.136l1.244 1.34zM9.457 18.728c1.307-1.001 2.533-2.018 3.677-3.050l-1.225-1.358c-1.105 0.997-2.293 1.983-3.564 2.956l1.112 1.452zM13.126 15.685c1.211-1.066 2.205-2.217 2.971-3.455l-1.555-0.963c-0.66 1.066-1.531 2.082-2.625 3.046l1.209 1.372zM16.088 12.243c0.835-1.3 1.256-2.733 1.256-4.28h-1.829c0 1.196-0.32 2.286-0.966 3.291l1.538 0.989zM17.344 7.963c0-1.757-0.593-3.214-1.873-4.217l-1.128 1.439c0.75 0.588 1.172 1.462 1.172 2.778h1.829zM15.484 3.756c-1.239-1.004-2.944-1.438-4.978-1.438v1.829c1.806 0 3.036 0.389 3.826 1.030l1.152-1.42zM10.506 2.318c-1.771 0-3.289 0.354-4.465 1.157-1.197 0.817-1.941 2.034-2.27 3.555l1.787 0.387c0.247-1.14 0.764-1.919 1.515-2.432 0.771-0.527 1.886-0.838 3.434-0.838v-1.829zM4.663 8.137c0.732 0 1.147 0.182 1.389 0.41l1.253-1.332c-0.69-0.65-1.62-0.907-2.643-0.907v1.829zM6.053 8.547c0.24 0.226 0.412 0.577 0.412 1.186h1.829c0-0.982-0.295-1.865-0.987-2.517l-1.253 1.332zM6.464 9.733c0 0.569-0.165 0.938-0.432 1.205l1.293 1.293c0.666-0.666 0.967-1.531 0.967-2.498h-1.829zM6.053 10.918c-0.247 0.233-0.653 0.41-1.348 0.41v1.829c1.005 0 1.916-0.262 2.601-0.907l-1.253-1.332zM4.704 11.328c-0.72 0-1.114-0.213-1.356-0.514-0.273-0.338-0.486-0.948-0.486-1.987h-1.829c0 1.237 0.246 2.335 0.892 3.135 0.676 0.838 1.661 1.194 2.779 1.194v-1.829zM2.862 8.827c0-1.407 0.343-2.583 0.998-3.566l-1.521-1.014c-0.881 1.321-1.306 2.86-1.306 4.58h1.829zM3.858 5.266c0.695-1.031 1.66-1.846 2.923-2.441l-0.779-1.655c-1.535 0.722-2.765 1.745-3.66 3.073l1.516 1.022zM6.774 2.828c1.286-0.593 2.797-0.903 4.554-0.903v-1.829c-1.973 0-3.753 0.348-5.32 1.072l0.766 1.66zM11.328 1.925c1.759 0 3.236 0.31 4.459 0.897l0.791-1.649c-1.52-0.729-3.279-1.077-5.25-1.077v1.829zM15.794 2.825c1.255 0.591 2.201 1.412 2.868 2.461l1.543-0.982c-0.868-1.365-2.090-2.408-3.632-3.134l-0.779 1.655zM18.667 5.294c0.657 1.010 1.004 2.229 1.004 3.698h1.829c0-1.768-0.422-3.346-1.3-4.695l-1.532 0.998zM19.671 8.992c0 1.528-0.349 2.844-1.023 3.976l1.571 0.936c0.862-1.447 1.281-3.093 1.281-4.911h-1.829zM18.648 12.967c-0.713 1.197-1.633 2.272-2.765 3.224l1.177 1.4c1.281-1.077 2.336-2.307 3.159-3.688l-1.571-0.936zM15.884 16.19c-1.145 0.958-2.385 1.852-3.721 2.681l0.964 1.554c1.406-0.872 2.717-1.816 3.931-2.833l-1.174-1.402zM12.168 18.868c-1.352 0.828-2.636 1.642-3.852 2.444l1.006 1.527c1.198-0.789 2.464-1.593 3.8-2.411l-0.955-1.559zM8.32 21.309c-1.227 0.799-2.261 1.64-3.091 2.529l1.337 1.248c0.707-0.757 1.62-1.507 2.752-2.244l-0.998-1.532zM5.229 23.838c-0.902 0.967-1.398 2.088-1.398 3.339h1.829c0-0.723 0.272-1.413 0.906-2.092l-1.337-1.248z"></path>
</symbol>
<symbol id="icon-3" viewBox="0 0 21 32">
<path d="M18.43 12.942v0zM14.27 15.182l-0.146-0.877-0.743 0.124v0.753h0.889zM14.27 15.342h-0.889v0.718l0.701 0.151 0.187-0.869zM19.149 26.702l-0.737-0.497-0.007 0.011 0.745 0.486zM15.749 29.582v0zM5.95 29.662v0zM2.75 27.022l-0.745 0.485 0.007 0.010 0.007 0.010 0.731-0.505zM6.23 20.382l-0.647 0.609 0.018 0.020 0.020 0.018 0.609-0.647zM6.19 23.942l0.591 0.664 0.010-0.009 0.010-0.009-0.61-0.646zM4.27 24.582v-0.889h-1.069l0.195 1.051 0.874-0.162zM14.11 18.062l-0.608 0.649 0.007 0.006 0.601-0.655zM8.79 16.262h-0.889v0.889h0.889v-0.889zM8.79 14.342v-0.889h-0.889v0.889h0.889zM13.95 12.582l-0.587-0.667-0.007 0.006 0.594 0.661zM14.55 4.382l-0.599 0.657 0.005 0.004 0.005 0.004 0.589-0.665zM4.83 6.622l-0.872-0.17-0.207 1.059h1.079v-0.889zM6.75 7.262l-0.609 0.647 0.020 0.018 0.021 0.017 0.569-0.683zM6.75 10.822l-0.61-0.646-0.009 0.009-0.009 0.009 0.629 0.629zM2.75 10.542v0zM3.11 4.302v0zM6.31 1.862v0zM15.669 1.942l-0.385 0.801 0.007 0.003 0.007 0.003 0.371-0.808zM18.79 4.582l-0.745 0.485 0.007 0.010 0.007 0.010 0.731-0.505zM19.061 8.502c0 1.577-0.449 2.846-1.31 3.867l1.358 1.147c1.165-1.38 1.73-3.071 1.73-5.014h-1.778zM17.75 12.369c-0.859 1.017-2.045 1.673-3.627 1.937l0.292 1.754c1.938-0.323 3.525-1.16 4.693-2.543l-1.358-1.147zM13.381 15.182v0.16h1.778v-0.16h-1.778zM14.082 16.211c1.915 0.413 3.248 1.151 4.105 2.142 0.85 0.984 1.314 2.311 1.314 4.069h1.778c0-2.082-0.557-3.855-1.746-5.231-1.183-1.368-2.91-2.251-5.075-2.718l-0.375 1.738zM19.501 22.422c0 1.468-0.37 2.718-1.088 3.783l1.474 0.994c0.935-1.388 1.392-2.992 1.392-4.777h-1.778zM18.405 26.217c-0.701 1.075-1.701 1.931-3.035 2.562l0.76 1.607c1.599-0.756 2.865-1.819 3.765-3.198l-1.489-0.971zM15.37 28.779c-1.327 0.627-2.899 0.955-4.74 0.955v1.778c2.052 0 3.893-0.366 5.5-1.125l-0.76-1.607zM10.63 29.733c-1.651 0-3.078-0.3-4.301-0.875l-0.757 1.609c1.497 0.704 3.19 1.045 5.058 1.045v-1.778zM6.328 28.858c-1.233-0.58-2.172-1.363-2.847-2.341l-1.463 1.010c0.872 1.262 2.066 2.24 3.553 2.939l0.757-1.609zM3.494 26.537c-0.646-0.992-0.976-2.128-0.976-3.435h-1.778c0 1.626 0.417 3.104 1.264 4.405l1.49-0.97zM2.518 23.102c0-1.034 0.216-1.644 0.497-1.985 0.254-0.308 0.668-0.526 1.414-0.526v-1.778c-1.121 0-2.107 0.349-2.786 1.174-0.652 0.792-0.903 1.882-0.903 3.115h1.778zM4.43 20.591c0.592 0 0.933 0.167 1.153 0.4l1.295-1.218c-0.634-0.673-1.492-0.96-2.447-0.96v1.778zM5.62 21.029c0.233 0.22 0.4 0.561 0.4 1.153h1.778c0-0.955-0.286-1.814-0.96-2.447l-1.218 1.295zM6.021 22.182c0 0.5-0.156 0.845-0.441 1.114l1.221 1.292c0.675-0.637 0.999-1.466 0.999-2.406h-1.778zM5.599 23.278c-0.28 0.249-0.692 0.415-1.329 0.415v1.778c0.962 0 1.831-0.26 2.511-0.865l-1.181-1.329zM3.396 24.744c0.278 1.499 1.008 2.693 2.214 3.49 1.178 0.777 2.722 1.117 4.54 1.117v-1.778c-1.622 0-2.779-0.307-3.56-0.823-0.753-0.497-1.244-1.243-1.446-2.33l-1.748 0.324zM10.149 29.351c2.096 0 3.833-0.487 5.046-1.619 1.225-1.143 1.763-2.797 1.763-4.79h-1.778c0 1.686-0.449 2.792-1.197 3.49-0.76 0.708-1.983 1.141-3.834 1.141v1.778zM16.958 22.942c0-2.259-0.728-4.139-2.248-5.535l-1.203 1.309c1.094 1.005 1.672 2.378 1.672 4.225h1.778zM14.717 17.414c-1.489-1.396-3.504-2.040-5.928-2.040v1.778c2.109 0 3.641 0.555 4.712 1.56l1.216-1.297zM9.678 16.262v-1.92h-1.778v1.92h1.778zM8.79 15.231c2.303 0 4.251-0.638 5.754-1.988l-1.188-1.323c-1.11 0.997-2.603 1.533-4.566 1.533v1.778zM14.537 13.249c1.542-1.357 2.302-3.155 2.302-5.307h-1.778c0 1.688-0.574 2.983-1.698 3.973l1.175 1.335zM16.838 7.942c0-1.735-0.531-3.191-1.699-4.225l-1.179 1.331c0.698 0.619 1.1 1.536 1.1 2.895h1.778zM15.148 3.725c-1.127-1.028-2.695-1.472-4.559-1.472v1.778c1.603 0 2.675 0.382 3.361 1.008l1.198-1.314zM10.589 2.253c-1.779 0-3.287 0.302-4.44 0.998-1.187 0.717-1.921 1.809-2.193 3.2l1.745 0.341c0.181-0.929 0.635-1.577 1.367-2.020 0.768-0.464 1.912-0.742 3.52-0.742v-1.778zM4.83 7.511c0.676 0 1.070 0.172 1.311 0.398l1.218-1.295c-0.666-0.627-1.552-0.882-2.529-0.882v1.778zM6.181 7.945c0.23 0.192 0.4 0.499 0.4 1.077h1.778c0-0.969-0.31-1.835-1.040-2.443l-1.138 1.366zM6.581 9.022c0 0.537-0.163 0.891-0.441 1.154l1.221 1.292c0.682-0.644 0.999-1.49 0.999-2.446h-1.778zM6.121 10.194c-0.253 0.253-0.622 0.42-1.211 0.42v1.778c0.957 0 1.815-0.287 2.469-0.94l-1.257-1.257zM4.91 10.613c-0.669 0-1.129-0.222-1.477-0.64l-1.366 1.138c0.718 0.862 1.699 1.28 2.843 1.28v-1.778zM3.432 9.973c-0.363-0.436-0.594-1.080-0.594-2.031h-1.778c0 1.236 0.303 2.325 1.006 3.169l1.366-1.138zM2.838 7.942c0-1.21 0.333-2.234 0.984-3.11l-1.427-1.061c-0.896 1.204-1.336 2.607-1.336 4.17h1.778zM3.823 4.833c0.667-0.898 1.601-1.62 2.839-2.154l-0.704-1.632c-1.483 0.64-2.682 1.543-3.561 2.726l1.427 1.061zM6.662 2.678c1.228-0.53 2.678-0.807 4.368-0.807v-1.778c-1.883 0-3.58 0.309-5.072 0.953l0.704 1.632zM11.030 1.871c1.652 0 3.063 0.3 4.255 0.872l0.769-1.603c-1.474-0.708-3.157-1.048-5.025-1.048v1.778zM15.298 2.75c1.193 0.549 2.098 1.322 2.747 2.317l1.49-0.97c-0.845-1.298-2.019-2.284-3.493-2.962l-0.743 1.615zM18.058 5.087c0.661 0.957 1.003 2.084 1.003 3.415h1.778c0-1.655-0.432-3.142-1.317-4.425l-1.463 1.010z"></path>
</symbol>
<symbol id="icon-4" viewBox="0 0 24 32">
<path d="M13.601 28.617l0.176 0.897 0.738-0.145v-0.753h-0.914zM13.601 22.322h0.914v-0.914h-0.914v0.914zM1.588 22.322l-0.887 0.222 0.173 0.693h0.714v-0.914zM1.135 20.512l-0.757-0.513-0.23 0.338 0.099 0.397 0.887-0.222zM14.342 1.051v-0.914h-0.484l-0.272 0.401 0.756 0.513zM17.592 1.051h0.914v-0.914h-0.914v0.914zM17.592 19.977h-0.914v0.914h0.914v-0.914zM22.077 19.977l0.901 0.158 0.188-1.072h-1.089v0.914zM21.665 22.322v0.914h0.768l0.133-0.756-0.901-0.158zM17.592 22.322v-0.914h-0.914v0.914h0.914zM17.592 28.617h-0.914v0.716l0.695 0.172 0.219-0.888zM20.76 29.399h0.914v-0.716l-0.695-0.172-0.219 0.888zM20.76 31.086v0.914h0.914v-0.914h-0.914zM9.611 31.086h-0.914v0.914h0.914v-0.914zM9.611 29.399l-0.176-0.897-0.739 0.145v0.753h0.914zM13.601 5.659h0.914v-2.998l-1.673 2.488 0.759 0.51zM3.974 19.977l-0.759-0.51-0.958 1.424h1.717v-0.914zM13.601 19.977v0.914h0.914v-0.914h-0.914zM14.516 28.617v-6.295h-1.829v6.295h1.829zM13.601 21.408h-12.014v1.829h12.014v-1.829zM2.475 22.101l-0.453-1.81-1.774 0.443 0.453 1.81 1.774-0.443zM1.892 21.025l13.207-19.461-1.513-1.027-13.207 19.461 1.513 1.027zM14.342 1.966h3.25v-1.829h-3.25v1.829zM16.678 1.051v18.926h1.829v-18.926h-1.829zM17.592 20.891h4.485v-1.829h-4.485v1.829zM21.176 19.819l-0.411 2.345 1.801 0.316 0.411-2.345-1.801-0.316zM21.665 21.408h-4.073v1.829h4.073v-1.829zM16.678 22.322v6.295h1.829v-6.295h-1.829zM17.373 29.505l3.168 0.782 0.438-1.775-3.168-0.782-0.438 1.775zM19.846 29.399v1.687h1.829v-1.687h-1.829zM20.76 30.171h-11.15v1.829h11.15v-1.829zM10.525 31.086v-1.687h-1.829v1.687h1.829zM9.786 30.296l3.991-0.782-0.352-1.794-3.991 0.782 0.352 1.795zM12.843 5.149l-9.627 14.318 1.517 1.020 9.627-14.318-1.517-1.020zM3.974 20.891h9.627v-1.829h-9.627v1.829zM14.516 19.977v-14.318h-1.829v14.318h1.829z"></path>
</symbol>
<symbol id="icon-5" viewBox="0 0 20 32">
<path d="M16.41 5.946v0.865h0.634l0.191-0.605-0.825-0.26zM5.708 5.946v-0.865h-0.744l-0.111 0.735 0.855 0.129zM4.423 14.43l-0.855-0.129-0.319 2.106 1.697-1.287-0.523-0.689zM6.875 13.146l-0.259-0.825-0.007 0.002 0.266 0.823zM14.62 13.808l-0.416 0.758 0.009 0.005 0.009 0.005 0.399-0.768zM17.695 26.301l0.747 0.437 0.003-0.006-0.75-0.431zM14.309 29.531l0.403 0.765 0.005-0.003-0.408-0.762zM4.929 29.803l-0.374 0.78 0.007 0.003 0.007 0.003 0.36-0.786zM2.010 27.468l-0.714 0.488 0.007 0.011 0.008 0.011 0.699-0.51zM1.855 21.591l0.649 0.571 0.006-0.006 0.005-0.006-0.66-0.559zM5.63 21.28v0zM5.513 24.588l-0.628-0.595-0.008 0.009-0.008 0.009 0.645 0.577zM3.606 25.328v-0.865h-1.072l0.227 1.048 0.845-0.183zM5.474 27.702v0zM13.53 26.729l-0.742-0.445-0.003 0.005 0.744 0.44zM13.569 16.688v0zM6.33 15.364l0.26 0.825 0.010-0.003 0.010-0.003-0.28-0.818zM4.073 16.804l-0.333 0.798 0.601 0.25 0.407-0.509-0.675-0.54zM2.205 16.026l-0.854-0.137-0.108 0.673 0.63 0.262 0.333-0.798zM4.423 2.249v-0.865h-0.737l-0.117 0.727 0.854 0.138zM15.632 2.249v0.865h0.506l0.248-0.441-0.754-0.424zM16.332 1.003v-0.865h-0.506l-0.248 0.441 0.754 0.424zM17.967 1.003l0.825 0.26 0.354-1.125h-1.179v0.865zM16.41 5.081h-10.703v1.73h10.703v-1.73zM4.852 5.816l-1.284 8.484 1.71 0.259 1.284-8.484-1.71-0.259zM4.946 15.119c0.677-0.513 1.407-0.896 2.195-1.151l-0.532-1.646c-0.976 0.316-1.88 0.79-2.708 1.418l1.045 1.378zM7.134 13.971c0.811-0.255 1.734-0.388 2.776-0.388v-1.73c-1.189 0-2.29 0.152-3.295 0.468l0.519 1.65zM9.911 13.583c1.7 0 3.121 0.339 4.293 0.983l0.833-1.516c-1.474-0.809-3.193-1.196-5.125-1.196v1.73zM14.222 14.575c1.205 0.626 2.134 1.51 2.803 2.663l1.496-0.868c-0.836-1.442-2.009-2.555-3.502-3.33l-0.797 1.535zM17.024 17.238c0.662 1.142 1.012 2.53 1.012 4.197h1.73c0-1.913-0.403-3.613-1.245-5.065l-1.496 0.868zM18.036 21.436c0 1.713-0.373 3.182-1.092 4.434l1.5 0.861c0.89-1.55 1.321-3.324 1.321-5.295h-1.73zM16.948 25.864c-0.721 1.233-1.73 2.199-3.048 2.905l0.817 1.525c1.589-0.851 2.836-2.038 3.724-3.556l-1.493-0.873zM13.905 28.766c-1.281 0.676-2.811 1.029-4.617 1.029v1.73c2.034 0 3.851-0.399 5.424-1.228l-0.807-1.53zM9.288 29.795c-1.562 0-2.888-0.268-3.999-0.778l-0.721 1.573c1.38 0.632 2.96 0.935 4.719 0.935v-1.73zM5.303 29.023c-1.137-0.545-1.99-1.238-2.594-2.065l-1.397 1.020c0.798 1.093 1.89 1.957 3.244 2.605l0.747-1.56zM2.724 26.98c-0.583-0.853-0.861-1.735-0.861-2.664h-1.73c0 1.302 0.397 2.522 1.163 3.641l1.428-0.977zM1.863 24.316c0-1.032 0.251-1.71 0.641-2.153l-1.299-1.143c-0.752 0.855-1.072 1.992-1.072 3.296h1.73zM2.515 22.15c0.431-0.51 0.876-0.706 1.364-0.706v-1.73c-1.069 0-1.974 0.479-2.684 1.318l1.32 1.117zM3.878 21.444c0.599 0 0.906 0.172 1.087 0.389l1.329-1.107c-0.598-0.717-1.458-1.012-2.416-1.012v1.73zM4.965 21.834c0.256 0.308 0.383 0.655 0.383 1.081h1.73c0-0.82-0.262-1.562-0.784-2.188l-1.329 1.107zM5.349 22.915c0 0.38-0.134 0.73-0.464 1.079l1.256 1.19c0.604-0.638 0.938-1.403 0.938-2.268h-1.73zM4.868 24.011c-0.237 0.265-0.611 0.451-1.263 0.451v1.73c1.009 0 1.906-0.306 2.552-1.028l-1.289-1.153zM2.761 25.51c0.269 1.246 1.077 2.218 2.268 2.933l0.89-1.483c-0.884-0.53-1.322-1.141-1.468-1.815l-1.691 0.366zM5.029 28.443c1.201 0.721 2.635 1.057 4.259 1.057v-1.73c-1.386 0-2.495-0.286-3.369-0.811l-0.89 1.483zM9.288 29.501c2.244 0 4.019-0.697 4.986-2.331l-1.489-0.881c-0.537 0.908-1.59 1.483-3.498 1.483v1.73zM14.272 27.174c0.884-1.474 1.291-3.343 1.291-5.543h-1.73c0 2.003-0.372 3.533-1.044 4.653l1.483 0.89zM15.563 21.63c0-2.168-0.391-3.993-1.258-5.397l-1.472 0.908c0.639 1.035 1 2.505 1 4.489h1.73zM14.305 16.233c-0.972-1.576-2.731-2.24-4.939-2.24v1.73c1.891 0 2.934 0.555 3.467 1.418l1.472-0.908zM9.366 13.993c-1.133 0-2.24 0.184-3.316 0.552l0.56 1.637c0.896-0.307 1.814-0.459 2.756-0.459v-1.73zM6.070 14.54c-1.109 0.35-2.023 0.913-2.672 1.724l1.351 1.081c0.388-0.485 0.98-0.883 1.842-1.156l-0.521-1.649zM4.406 16.006l-1.868-0.778-0.665 1.597 1.868 0.778 0.665-1.597zM3.059 16.163l2.218-13.777-1.708-0.275-2.218 13.777 1.708 0.275zM4.423 3.114h11.209v-1.73h-11.209v1.73zM16.386 2.673l0.701-1.245-1.508-0.848-0.701 1.245 1.508 0.848zM16.332 1.868h1.635v-1.73h-1.635v1.73zM17.142 0.743l-1.557 4.943 1.65 0.52 1.557-4.943-1.65-0.52z"></path>
</symbol>
<symbol id="icon-6" viewBox="0 0 22 32">
<path d="M4.776 16.182l-0.886 0.068 0.063 0.821h0.823v-0.889zM4.936 16.182v0.889h0.442l0.267-0.353-0.709-0.536zM7.936 13.862v0zM16.456 14.142l-0.455 0.764 0.009 0.006 0.010 0.005 0.436-0.775zM19.456 17.222l-0.782 0.422 0.004 0.007 0.779-0.429zM17.936 28.262l-0.598-0.658-0.005 0.005 0.602 0.654zM3.416 27.182l-0.725 0.514 0.004 0.006 0.721-0.52zM3.616 4.982v0zM15.536 1.822l-0.369 0.809 0.007 0.003 0.363-0.812zM14.896 10.422l-0.629 0.629 0.018 0.018 0.020 0.017 0.591-0.664zM14.896 6.862l0.609 0.647 0.001-0.001-0.61-0.646zM16.856 6.182v0.889h1.073l-0.199-1.054-0.873 0.165zM15.216 3.942v0zM6.336 5.822v0zM4.696 15.262h-0.889v0.044l0.004 0.044 0.884-0.088zM4.776 17.071h0.16v-1.778h-0.16v1.778zM5.645 16.719c0.647-0.855 1.522-1.539 2.654-2.045l-0.725-1.623c-1.375 0.614-2.5 1.476-3.346 2.595l1.418 1.073zM8.299 14.674c1.132-0.506 2.367-0.763 3.717-0.763v-1.778c-1.583 0-3.068 0.303-4.443 0.917l0.725 1.623zM12.016 13.911c1.574 0 2.891 0.343 3.985 0.995l0.91-1.527c-1.413-0.842-3.056-1.245-4.895-1.245v1.778zM16.020 14.917c1.129 0.635 2.011 1.537 2.654 2.728l1.564-0.845c-0.797-1.476-1.915-2.627-3.346-3.432l-0.872 1.55zM18.677 17.651c0.636 1.154 0.97 2.534 0.97 4.171h1.778c0-1.883-0.386-3.569-1.19-5.029l-1.557 0.858zM19.647 21.822c0 2.514-0.791 4.405-2.309 5.782l1.195 1.316c1.95-1.77 2.891-4.172 2.891-7.098h-1.778zM17.333 27.609c-1.502 1.385-3.586 2.125-6.357 2.125v1.778c3.095 0 5.652-0.834 7.563-2.595l-1.205-1.307zM10.976 29.733c-3.165 0-5.387-1.057-6.839-3.071l-1.442 1.040c1.855 2.573 4.673 3.809 8.281 3.809v-1.778zM4.141 26.668c-1.469-2.071-2.276-5.369-2.276-10.046h-1.778c0 4.817 0.82 8.559 2.604 11.074l1.45-1.028zM1.865 16.622c0-5.014 0.87-8.692 2.493-11.15l-1.484-0.979c-1.897 2.875-2.787 6.957-2.787 12.13h1.778zM4.358 5.472c1.587-2.405 3.848-3.601 6.898-3.601v-1.778c-3.617 0-6.449 1.471-8.382 4.399l1.484 0.979zM11.256 1.871c1.525 0 2.821 0.262 3.911 0.76l0.738-1.617c-1.364-0.623-2.921-0.92-4.649-0.92v1.778zM15.173 2.634c1.122 0.501 1.959 1.188 2.549 2.050l1.467-1.004c-0.797-1.164-1.906-2.051-3.291-2.67l-0.725 1.623zM17.722 4.684c0.583 0.853 0.885 1.848 0.885 3.018h1.778c0-1.496-0.392-2.848-1.195-4.022l-1.467 1.004zM18.607 7.702c0 1.023-0.211 1.626-0.482 1.961-0.242 0.299-0.635 0.51-1.349 0.51v1.778c1.099 0 2.066-0.349 2.731-1.17 0.635-0.785 0.878-1.863 0.878-3.079h-1.778zM16.776 10.173c-0.602 0-1.004-0.162-1.29-0.415l-1.181 1.329c0.675 0.6 1.526 0.865 2.471 0.865v-1.778zM15.524 9.794c-0.259-0.259-0.42-0.619-0.42-1.171h-1.778c0 0.94 0.293 1.781 0.94 2.429l1.257-1.257zM15.105 8.622c0-0.554 0.161-0.887 0.4-1.113l-1.218-1.295c-0.667 0.628-0.96 1.468-0.96 2.407h1.778zM15.506 7.508c0.276-0.261 0.69-0.437 1.35-0.437v-1.778c-0.994 0-1.886 0.277-2.57 0.923l1.221 1.292zM17.729 6.017c-0.237-1.255-0.952-2.221-2.080-2.851l-0.867 1.552c0.686 0.383 1.064 0.911 1.2 1.629l1.747-0.33zM15.649 3.166c-1.085-0.606-2.451-0.873-4.034-0.873v1.778c1.404 0 2.438 0.24 3.166 0.647l0.867-1.552zM11.616 2.293c-2.672 0-4.749 0.99-6.035 3.060l1.51 0.938c0.901-1.45 2.344-2.22 4.525-2.22v-1.778zM5.581 5.353c-1.229 1.978-1.774 5.013-1.774 8.949h1.778c0-3.851 0.548-6.469 1.506-8.011l-1.51-0.938zM3.807 14.302c0 0.001 0 0.001 0 0.002s0 0.001 0 0.002 0 0.002 0 0.002 0 0.001 0 0.002 0 0.002 0 0.002 0 0.001 0 0.002 0 0.002 0 0.002 0 0.001 0 0.002 0 0.002 0 0.002 0 0.001 0 0.002 0 0.002 0 0.002 0 0.001 0 0.002 0 0.002 0 0.002 0 0.001 0 0.002 0 0.001 0 0.002 0 0.001 0 0.002 0 0.001 0 0.002 0 0.002 0 0.002 0 0.001 0 0.002 0 0.001 0 0.002 0 0.002 0 0.002 0 0.001 0 0.002 0 0.001 0 0.002 0 0.002 0 0.002 0 0.001 0 0.002 0 0.001 0 0.002 0 0.001 0 0.002 0 0.002 0 0.002 0 0.001 0 0.002 0 0.001 0 0.002 0 0.001 0 0.002 0 0.001 0 0.002 0 0.002 0 0.002 0 0.001 0 0.002 0 0.001 0 0.002 0 0.001 0 0.002 0 0.001 0 0.002 0 0.001 0 0.002 0 0.001 0 0.002 0 0.001 0 0.002 0 0.001 0 0.002 0 0.001 0 0.002 0 0.001 0 0.002 0 0.001 0 0.002 0 0.001 0 0.002 0 0.001 0 0.002 0 0.001 0 0.002 0 0.001 0 0.002 0 0.001 0 0.002 0 0.001 0 0.002 0 0.001 0 0.002 0 0.001 0 0.002 0 0.001 0 0.002 0 0.001 0 0.002 0 0.001 0 0.002 0 0.001 0 0.002 0 0.001 0 0.002 0 0.001 0 0.002 0 0.001 0 0.002 0 0.001 0 0.002 0 0.001 0 0.002 0 0.001 0 0.002 0 0.001 0 0.002 0 0.001 0 0.002 0 0.001 0 0.002 0 0.001 0 0.002 0 0.001 0 0.002 0 0.001 0 0.002 0 0.001 0 0.002 0 0.001 0 0.002 0 0.001 0 0.002 0 0.001 0 0.002 0 0.001 0 0.002 0 0.001 0 0.002 0 0.001 0 0.002 0 0.001 0 0.002 0 0.001 0 0.002 0 0.001 0 0.002 0 0.001 0 0.002 0 0.001 0 0.002 0 0.001 0 0.002 0 0.001 0 0.002 0 0.001 0 0.002 0 0.001 0 0.002 0 0.001 0 0.002 0 0.001 0 0.002 0 0.001 0 0.002 0 0.001 0 0.002 0 0.001 0 0.002 0 0.001 0 0.002 0 0.001 0 0.002 0 0.001 0 0.002 0 0.001 0 0.002 0 0.001 0 0.002 0 0.001 0 0.002 0 0.001 0 0.002 0 0.001 0 0.002 0 0.001 0 0.002 0 0.001 0 0.002 0 0.001 0 0.002 0 0.001 0 0.002 0 0.001 0 0.002 0 0.001 0 0.002 0 0.001 0 0.002 0 0.001 0 0.002 0 0.001 0 0.002 0 0.001 0 0.002 0 0.001 0 0.002 0 0.001 0 0.002 0 0.001 0 0.002 0 0.001 0 0.002 0 0.001 0 0.002 0 0.001 0 0.002 0 0.001 0 0.002 0 0.001 0 0.002 0 0.001 0 0.002 0 0.001 0 0.002 0 0.001 0 0.002 0 0.001 0 0.002 0 0.001 0 0.002 0 0.001 0 0.002 0 0.001 0 0.002 0 0.001 0 0.002 0 0.001 0 0.002 0 0.001 0 0.002 0 0.001 0 0.002 0 0.001 0 0.002 0 0.001 0 0.002 0 0.001 0 0.002 0 0.001 0 0.002 0 0.001 0 0.002 0 0.001 0 0.002 0 0.001 0 0.002 0 0.001 0 0.002 0 0.001 0 0.002 0 0.001 0 0.002 0 0.001 0 0.002 0 0.001 0 0.002 0 0.001 0 0.002 0 0.001 0 0.002 0 0.001 0 0.002 0 0.001 0 0.002 0 0.001 0 0.002 0 0.001 0 0.002 0 0.001 0 0.002 0 0.001 0 0.002 0 0.001 0 0.002 0 0.001 0 0.002 0 0.001 0 0.002 0 0.001 0 0.002 0 0.001 0 0.002 0 0.001 0 0.002 0 0.001 0 0.002 0 0.001 0 0.002 0 0.001 0 0.002 0 0.001 0 0.002 0 0.001 0 0.002 0 0.001 0 0.002 0 0.001 0 0.002 0 0.001 0 0.002 0 0.001 0 0.002 0 0.001 0 0.002 0 0.001 0 0.002 0 0.001 0 0.002 0 0.001 0 0.002 0 0.001 0 0.002 0 0.001 0 0.002 0 0.001 0 0.002 0 0.001 0 0.002 0 0.001 0 0.002 0 0.001 0 0.002 0 0.001 0 0.002 0 0.001 0 0.002 0 0.001 0 0.002 0 0.001 0 0.002 0 0.001 0 0.002 0 0.001 0 0.002 0 0.001 0 0.002 0 0.001 0 0.002 0 0.001 0 0.002 0 0.001 0 0.002 0 0.001 0 0.002 0 0.001 0 0.002 0 0.001 0 0.002 0 0.001 0 0.002 0 0.001 0 0.002 0 0.001 0 0.002 0 0.001 0 0.002 0 0.001 0 0.002 0 0.001 0 0.002 0 0.001 0 0.002 0 0.001 0 0.002 0 0.001 0 0.002 0 0.001 0 0.002 0 0.001 0 0.002 0 0.001 0 0.002 0 0.001 0 0.002 0 0.001 0 0.002 0 0.001 0 0.002 0 0.001 0 0.002 0 0.001 0 0.002 0 0.001 0 0.002 0 0.001 0 0.002 0 0.001 0 0.002 0 0.001 0 0.002 0 0.001 0 0.002 0 0.001 0 0.002 0 0.001 0 0.002 0 0.001 0 0.002 0 0.001 0 0.002 0 0.001 0 0.002 0 0.001 0 0.002 0 0.001 0 0.002 0 0.001 0 0.002 0 0.001 0 0.002 0 0.001 0 0.002 0 0.001 0 0.002 0 0.001 0 0.002 0 0.001 0 0.002 0 0.001 0 0.002 0 0.001 0 0.002 0 0.001 0 0.002c0 0.001 0 0.001 0 0.002s0 0.001 0 0.002 0 0.001 0 0.002 0 0.001 0 0.002 0 0.001 0 0.002 0 0.001 0 0.002 0 0.001 0 0.002 0 0.001 0 0.002 0 0.001 0 0.002 0 0.001 0 0.002 0 0.001 0 0.002 0 0.001 0 0.002 0 0.001 0 0.002 0 0.001 0 0.002 0 0.001 0 0.002 0 0.001 0 0.002 0 0.001 0 0.002 0 0.001 0 0.002 0 0.001 0 0.002 0 0.001 0 0.002 0 0.001 0 0.002 0 0.001 0 0.002 0 0.001 0 0.002 0 0.001 0 0.002 0 0.001 0 0.002 0 0.001 0 0.002 0 0.001 0 0.002 0 0.001 0 0.002 0 0.001 0 0.002 0 0.001 0 0.002 0 0.001 0 0.002 0 0.001 0 0.002 0 0.001 0 0.002 0 0.001 0 0.002 0 0.001 0 0.002 0 0.001 0 0.002 0 0.001 0 0.002 0 0.001 0 0.002 0 0.001 0 0.002 0 0.001 0 0.002 0 0.001 0 0.002 0 0.001 0 0.002 0 0.001 0 0.002 0 0.001 0 0.002 0 0.001 0 0.002 0 0.001 0 0.002 0 0.001 0 0.002 0 0.001 0 0.002 0 0.001 0 0.002 0 0.001 0 0.002 0 0.001 0 0.002 0 0.001 0 0.002 0 0.001 0 0.002 0 0.001 0 0.002 0 0.001 0 0.002 0 0.001 0 0.002 0 0.001 0 0.002 0 0.001 0 0.002 0 0.001 0 0.002 0 0.001 0 0.002 0 0.001 0 0.002 0 0.001 0 0.002 0 0.001 0 0.002 0 0.001 0 0.002 0 0.001 0 0.002 0 0.001 0 0.002 0 0.001 0 0.002 0 0.001 0 0.002 0 0.001 0 0.002 0 0.001 0 0.002 0 0.001 0 0.002 0 0.001 0 0.002 0 0.001 0 0.002 0 0.001 0 0.002 0 0.001 0 0.002 0 0.001 0 0.002 0 0.001 0 0.002 0 0.001 0 0.002 0 0.001 0 0.002 0 0.001 0 0.002 0 0.001 0 0.002 0 0.001 0 0.002c0 0.001 0 0.001 0 0.002s0 0.001 0 0.002 0 0.001 0 0.002 0 0.001 0 0.002 0 0.001 0 0.002 0 0.001 0 0.002 0 0.001 0 0.002 0 0.001 0 0.002 0 0.001 0 0.002 0 0.001 0 0.002 0 0.001 0 0.002 0 0.001 0 0.002 0 0.001 0 0.002 0 0.001 0 0.002 0 0.001 0 0.002 0 0.001 0 0.002 0 0.001 0 0.002 0 0.001 0 0.002 0 0.001 0 0.002 0 0.001 0 0.002 0 0.001 0 0.002 0 0.001 0 0.002 0 0.001 0 0.002 0 0.001 0 0.002 0 0.001 0 0.002 0 0.001 0 0.002 0 0.001 0 0.002 0 0.001 0 0.002 0 0.001 0 0.002 0 0.001 0 0.002 0 0.001 0 0.002 0 0.001 0 0.002 0 0.001 0 0.002 0 0.001 0 0.002 0 0.001 0 0.002 0 0.001 0 0.002 0 0.001 0 0.002 0 0.001 0 0.002 0 0.001 0 0.002 0 0.001 0 0.002 0 0.001 0 0.002 0 0.001 0 0.002 0 0.001 0 0.002 0 0.001 0 0.002 0 0.001 0 0.002 0 0.001 0 0.002 0 0.001 0 0.002 0 0.001 0 0.002 0 0.001 0 0.002 0 0.001 0 0.002 0 0.001 0 0.002 0 0.001 0 0.002 0 0.001 0 0.002 0 0.001 0 0.002 0 0.001 0 0.002 0 0.001 0 0.002 0 0.001 0 0.002 0 0.001 0 0.002 0 0.001 0 0.002 0 0.001 0 0.002 0 0.001 0 0.002 0 0.001 0 0.002 0 0.001 0 0.002 0 0.001 0 0.002 0 0.001 0 0.002 0 0.001 0 0.002 0 0.001 0 0.002 0 0.001 0 0.002 0 0.001 0 0.002 0 0.001 0 0.002 0 0.001 0 0.002 0 0.001 0 0.002 0 0.001 0 0.002 0 0.001 0 0.002 0 0.001 0 0.002 0 0.001 0 0.002 0 0.001 0 0.002 0 0.001 0 0.002 0 0.001 0 0.002 0 0.001 0 0.002 0 0.001 0 0.002 0 0.001 0 0.002 0 0.001 0 0.002 0 0.001 0 0.002 0 0.001 0 0.002 0 0.001 0 0.002 0 0.001 0 0.002 0 0.001 0 0.002 0 0.001 0 0.002 0 0.001 0 0.002 0 0.001 0 0.002 0 0.001 0 0.002 0 0.001 0 0.002 0 0.001 0 0.002 0 0.001 0 0.002 0 0.001 0 0.002 0 0.001 0 0.002 0 0.001 0 0.002 0 0.001 0 0.002 0 0.001 0 0.002 0 0.001 0 0.002 0 0.001 0 0.002 0 0.001 0 0.002 0 0.001 0 0.002 0 0.001 0 0.002 0 0.001 0 0.002 0 0.001 0 0.002 0 0.001 0 0.002 0 0.001 0 0.002 0 0.001 0 0.002 0 0.001 0 0.002 0 0.001 0 0.002 0 0.001 0 0.002 0 0.001 0 0.002 0 0.001 0 0.002 0 0.001 0 0.002 0 0.001 0 0.002 0 0.001 0 0.002 0 0.001 0 0.002 0 0.001 0 0.002 0 0.001 0 0.002 0 0.001 0 0.002 0 0.001 0 0.002 0 0.001 0 0.002 0 0.001 0 0.002 0 0.001 0 0.002 0 0.001 0 0.002 0 0.001 0 0.002 0 0.001 0 0.002 0 0.001 0 0.002 0 0.001 0 0.002 0 0.001 0 0.002 0 0.001 0 0.002 0 0.001 0 0.002 0 0.001 0 0.002 0 0.001 0 0.002 0 0.001 0 0.002 0 0.001 0 0.002 0 0.001 0 0.002 0 0.001 0 0.002 0 0.001 0 0.002 0 0.001 0 0.002 0 0.001 0 0.002 0 0.001 0 0.002 0 0.001 0 0.002 0 0.001 0 0.002 0 0.001 0 0.002 0 0.001 0 0.002 0 0.001 0 0.002 0 0.001 0 0.002 0 0.001 0 0.002 0 0.001 0 0.002 0 0.001 0 0.002 0 0.001 0 0.002 0 0.001 0 0.002 0 0.001 0 0.002 0 0.001 0 0.002 0 0.001 0 0.002 0 0.001 0 0.002 0 0.001 0 0.002 0 0.001 0 0.002 0 0.001 0 0.002 0 0.001 0 0.002 0 0.001 0 0.002 0 0.001 0 0.002 0 0.001 0 0.002 0 0.001 0 0.002 0 0.001 0 0.002 0 0.001 0 0.002 0 0.001 0 0.002 0 0.001 0 0.002 0 0.001 0 0.002 0 0.001 0 0.002 0 0.001 0 0.002 0 0.001 0 0.002 0 0.001 0 0.002 0 0.001 0 0.002 0 0.001 0 0.002 0 0.001 0 0.002 0 0.001 0 0.002 0 0.001 0 0.002 0 0.001 0 0.002 0 0.001 0 0.002 0 0.001 0 0.002 0 0.001 0 0.002 0 0.001 0 0.002 0 0.001 0 0.002 0 0.001 0 0.002 0 0.001 0 0.002 0 0.001 0 0.002 0 0.001 0 0.002 0 0.001 0 0.002 0 0.001 0 0.002 0 0.001 0 0.002 0 0.001 0 0.002 0 0.001 0 0.002 0 0.001 0 0.002 0 0.001 0 0.002 0 0.001 0 0.002 0 0.001 0 0.002 0 0.001 0 0.002 0 0.001 0 0.002 0 0.001 0 0.002 0 0.001 0 0.002 0 0.001 0 0.002 0 0.001 0 0.002 0 0.001 0 0.002 0 0.001 0 0.002h1.778c0-0.001 0-0.001 0-0.002s0-0.001 0-0.002 0-0.001 0-0.002 0-0.001 0-0.002 0-0.001 0-0.002 0-0.001 0-0.002 0-0.001 0-0.002 0-0.001 0-0.002 0-0.001 0-0.002 0-0.001 0-0.002 0-0.001 0-0.002 0-0.001 0-0.002 0-0.001 0-0.002 0-0.001 0-0.002 0-0.001 0-0.002 0-0.001 0-0.002 0-0.001 0-0.002 0-0.001 0-0.002 0-0.001 0-0.002 0-0.001 0-0.002 0-0.001 0-0.002 0-0.001 0-0.002 0-0.001 0-0.002 0-0.001 0-0.002 0-0.001 0-0.002 0-0.001 0-0.002 0-0.001 0-0.002 0-0.001 0-0.002 0-0.001 0-0.002 0-0.001 0-0.002 0-0.001 0-0.002 0-0.001 0-0.002 0-0.001 0-0.002 0-0.001 0-0.002 0-0.001 0-0.002 0-0.001 0-0.002 0-0.001 0-0.002 0-0.001 0-0.002 0-0.001 0-0.002 0-0.001 0-0.002 0-0.001 0-0.002 0-0.001 0-0.002 0-0.001 0-0.002 0-0.001 0-0.002 0-0.001 0-0.002 0-0.001 0-0.002 0-0.001 0-0.002 0-0.001 0-0.002 0-0.001 0-0.002 0-0.001 0-0.002 0-0.001 0-0.002 0-0.001 0-0.002 0-0.001 0-0.002 0-0.001 0-0.002 0-0.001 0-0.002 0-0.001 0-0.002 0-0.001 0-0.002 0-0.001 0-0.002 0-0.001 0-0.002 0-0.001 0-0.002 0-0.001 0-0.002 0-0.001 0-0.002 0-0.001 0-0.002 0-0.001 0-0.002 0-0.001 0-0.002 0-0.001 0-0.002 0-0.001 0-0.002 0-0.001 0-0.002 0-0.001 0-0.002 0-0.001 0-0.002 0-0.001 0-0.002 0-0.001 0-0.002 0-0.001 0-0.002 0-0.001 0-0.002 0-0.001 0-0.002 0-0.001 0-0.002 0-0.001 0-0.002 0-0.001 0-0.002 0-0.001 0-0.002 0-0.001 0-0.002 0-0.001 0-0.002 0-0.001 0-0.002 0-0.001 0-0.002 0-0.001 0-0.002 0-0.001 0-0.002 0-0.001 0-0.002 0-0.001 0-0.002 0-0.001 0-0.002 0-0.001 0-0.002 0-0.001 0-0.002 0-0.001 0-0.002 0-0.001 0-0.002 0-0.001 0-0.002 0-0.001 0-0.002 0-0.001 0-0.002 0-0.001 0-0.002 0-0.001 0-0.002 0-0.001 0-0.002 0-0.001 0-0.002 0-0.001 0-0.002 0-0.001 0-0.002 0-0.001 0-0.002 0-0.001 0-0.002 0-0.001 0-0.002 0-0.001 0-0.002 0-0.001 0-0.002 0-0.001 0-0.002 0-0.001 0-0.002 0-0.001 0-0.002 0-0.001 0-0.002 0-0.001 0-0.002 0-0.001 0-0.002 0-0.001 0-0.002 0-0.001 0-0.002 0-0.001 0-0.002 0-0.001 0-0.002 0-0.001 0-0.002 0-0.001 0-0.002 0-0.001 0-0.002 0-0.001 0-0.002 0-0.001 0-0.002 0-0.001 0-0.002 0-0.001 0-0.002 0-0.001 0-0.002 0-0.001 0-0.002 0-0.001 0-0.002 0-0.001 0-0.002 0-0.001 0-0.002 0-0.001 0-0.002 0-0.001 0-0.002 0-0.001 0-0.002c0-0.001 0-0.001 0-0.002s0-0.001 0-0.002 0-0.001 0-0.002 0-0.001 0-0.002 0-0.001 0-0.002 0-0.001 0-0.002 0-0.001 0-0.002 0-0.001 0-0.002 0-0.001 0-0.002 0-0.001 0-0.002 0-0.001 0-0.002 0-0.001 0-0.002 0-0.001 0-0.002 0-0.001 0-0.002 0-0.001 0-0.002 0-0.001 0-0.002 0-0.001 0-0.002 0-0.001 0-0.002 0-0.001 0-0.002 0-0.001 0-0.002 0-0.001 0-0.002 0-0.001 0-0.002 0-0.001 0-0.002 0-0.001 0-0.002 0-0.001 0-0.002 0-0.001 0-0.002 0-0.001 0-0.002 0-0.001 0-0.002 0-0.001 0-0.002 0-0.001 0-0.002 0-0.001 0-0.002 0-0.001 0-0.002 0-0.001 0-0.002 0-0.001 0-0.002 0-0.001 0-0.002 0-0.001 0-0.002 0-0.001 0-0.002 0-0.001 0-0.002 0-0.001 0-0.002 0-0.001 0-0.002 0-0.001 0-0.002 0-0.001 0-0.002 0-0.001 0-0.002 0-0.001 0-0.002 0-0.001 0-0.002 0-0.001 0-0.002 0-0.001 0-0.002 0-0.001 0-0.002 0-0.001 0-0.002 0-0.001 0-0.002 0-0.001 0-0.002 0-0.001 0-0.002 0-0.001 0-0.002 0-0.001 0-0.002 0-0.001 0-0.002 0-0.001 0-0.002 0-0.001 0-0.002 0-0.001 0-0.002 0-0.001 0-0.002 0-0.001 0-0.002 0-0.001 0-0.002 0-0.001 0-0.002 0-0.001 0-0.002 0-0.001 0-0.002 0-0.001 0-0.002 0-0.001 0-0.002 0-0.001 0-0.002 0-0.001 0-0.002 0-0.001 0-0.002 0-0.001 0-0.002 0-0.001 0-0.002 0-0.001 0-0.002 0-0.001 0-0.002 0-0.001 0-0.002 0-0.001 0-0.002 0-0.001 0-0.002 0-0.001 0-0.002 0-0.001 0-0.002 0-0.001 0-0.002 0-0.001 0-0.002 0-0.001 0-0.002 0-0.001 0-0.002 0-0.001 0-0.002 0-0.001 0-0.002 0-0.001 0-0.002 0-0.001 0-0.002 0-0.001 0-0.002 0-0.001 0-0.002 0-0.001 0-0.002 0-0.001 0-0.002 0-0.001 0-0.002 0-0.001 0-0.002 0-0.001 0-0.002 0-0.001 0-0.002 0-0.001 0-0.002 0-0.001 0-0.002 0-0.001 0-0.002 0-0.001 0-0.002 0-0.001 0-0.002 0-0.001 0-0.002 0-0.001 0-0.002 0-0.001 0-0.002 0-0.001 0-0.002 0-0.001 0-0.002 0-0.001 0-0.002 0-0.001 0-0.002 0-0.001 0-0.002 0-0.001 0-0.002 0-0.001 0-0.002 0-0.001 0-0.002 0-0.001 0-0.002 0-0.001 0-0.002 0-0.001 0-0.002 0-0.001 0-0.002 0-0.001 0-0.002 0-0.001 0-0.002 0-0.001 0-0.002 0-0.001 0-0.002 0-0.001 0-0.002 0-0.001 0-0.002 0-0.001 0-0.002 0-0.001 0-0.002 0-0.001 0-0.002 0-0.001 0-0.002 0-0.001 0-0.002 0-0.001 0-0.002 0-0.001 0-0.002 0-0.001 0-0.002 0-0.001 0-0.002 0-0.001 0-0.002 0-0.001 0-0.002 0-0.001 0-0.002 0-0.001 0-0.002 0-0.001 0-0.002 0-0.001 0-0.002 0-0.001 0-0.002 0-0.001 0-0.002 0-0.001 0-0.002 0-0.001 0-0.002 0-0.001 0-0.002 0-0.001 0-0.002 0-0.001 0-0.002 0-0.001 0-0.002 0-0.001 0-0.002 0-0.001 0-0.002 0-0.001 0-0.002 0-0.001 0-0.002 0-0.001 0-0.002 0-0.001 0-0.002 0-0.001 0-0.002 0-0.001 0-0.002 0-0.001 0-0.002 0-0.001 0-0.002 0-0.001 0-0.002 0-0.001 0-0.002 0-0.001 0-0.002 0-0.001 0-0.002 0-0.001 0-0.002 0-0.001 0-0.002 0-0.001 0-0.002 0-0.001 0-0.002 0-0.001 0-0.002 0-0.001 0-0.002 0-0.001 0-0.002 0-0.001 0-0.002 0-0.001 0-0.002 0-0.001 0-0.002 0-0.001 0-0.002 0-0.001 0-0.002 0-0.001 0-0.002 0-0.001 0-0.002 0-0.001 0-0.002 0-0.001 0-0.002 0-0.001 0-0.002 0-0.001 0-0.002 0-0.001 0-0.002 0-0.001 0-0.002 0-0.001 0-0.002 0-0.001 0-0.002 0-0.001 0-0.002 0-0.001 0-0.002 0-0.001 0-0.002 0-0.001 0-0.002 0-0.001 0-0.002 0-0.001 0-0.002 0-0.001 0-0.002 0-0.001 0-0.002 0-0.001 0-0.002 0-0.001 0-0.002 0-0.001 0-0.002 0-0.001 0-0.002 0-0.001 0-0.002 0-0.001 0-0.002 0-0.001 0-0.002 0-0.001 0-0.002 0-0.001 0-0.002 0-0.001 0-0.002 0-0.001 0-0.002 0-0.001 0-0.002 0-0.001 0-0.002 0-0.001 0-0.002 0-0.001 0-0.002 0-0.001 0-0.002 0-0.001 0-0.002 0-0.001 0-0.002 0-0.001 0-0.002 0-0.001 0-0.002 0-0.001 0-0.002 0-0.001 0-0.002 0-0.001 0-0.002 0-0.001 0-0.002 0-0.001 0-0.002 0-0.001 0-0.002 0-0.001 0-0.002c0-0.001 0-0.001 0-0.002s0-0.001 0-0.002 0-0.001 0-0.002 0-0.001 0-0.002 0-0.001 0-0.002 0-0.001 0-0.002 0-0.001 0-0.002 0-0.001 0-0.002 0-0.001 0-0.002 0-0.001 0-0.002 0-0.001 0-0.002 0-0.001 0-0.002 0-0.001 0-0.002 0-0.001 0-0.002 0-0.001 0-0.002 0-0.001 0-0.002c0-0.001 0-0.001 0-0.002s0-0.001 0-0.002 0-0.001 0-0.002 0-0.001 0-0.002 0-0.001 0-0.002 0-0.001 0-0.002 0-0.001 0-0.002 0-0.001 0-0.002 0-0.001 0-0.002 0-0.001 0-0.002 0-0.001 0-0.002 0-0.001 0-0.002 0-0.001 0-0.002 0-0.001 0-0.002 0-0.001 0-0.002 0-0.001 0-0.002 0-0.001 0-0.002 0-0.001 0-0.002 0-0.001 0-0.002 0-0.001 0-0.002 0-0.001 0-0.002 0-0.001 0-0.002 0-0.001 0-0.002 0-0.001 0-0.002 0-0.001 0-0.002 0-0.001 0-0.002 0-0.001 0-0.002 0-0.001 0-0.002 0-0.001 0-0.002 0-0.001 0-0.002 0-0.001 0-0.002 0-0.001 0-0.002 0-0.001 0-0.002 0-0.001 0-0.002 0-0.001 0-0.002 0-0.001 0-0.002 0-0.001 0-0.002 0-0.001 0-0.002 0-0.001 0-0.002 0-0.001 0-0.002 0-0.001 0-0.002 0-0.001 0-0.002 0-0.001 0-0.002 0-0.001 0-0.002 0-0.001 0-0.002 0-0.001 0-0.002 0-0.001 0-0.002 0-0.001 0-0.002 0-0.001 0-0.002 0-0.001 0-0.002 0-0.001 0-0.002 0-0.001 0-0.002 0-0.001 0-0.002 0-0.001 0-0.002 0-0.001 0-0.002 0-0.001 0-0.002 0-0.001 0-0.002 0-0.001 0-0.002 0-0.001 0-0.002 0-0.001 0-0.002 0-0.001 0-0.002 0-0.001 0-0.002 0-0.001 0-0.002 0-0.001 0-0.002 0-0.001 0-0.002 0-0.001 0-0.002 0-0.001 0-0.002 0-0.001 0-0.002 0-0.001 0-0.002 0-0.001 0-0.002 0-0.001 0-0.002 0-0.001 0-0.002 0-0.001 0-0.002 0-0.001 0-0.002 0-0.001 0-0.002 0-0.001 0-0.002 0-0.001 0-0.002 0-0.001 0-0.002 0-0.001 0-0.002 0-0.001 0-0.002 0-0.001 0-0.002 0-0.001 0-0.002 0-0.001 0-0.002 0-0.001 0-0.002 0-0.001 0-0.002 0-0.001 0-0.002 0-0.001 0-0.002 0-0.001 0-0.002 0-0.001 0-0.002 0-0.001 0-0.002 0-0.001 0-0.002 0-0.001 0-0.002 0-0.001 0-0.002 0-0.001 0-0.002 0-0.001 0-0.002 0-0.001 0-0.002 0-0.001 0-0.002 0-0.001 0-0.002 0-0.001 0-0.002 0-0.001 0-0.002 0-0.001 0-0.002 0-0.001 0-0.002 0-0.001 0-0.002 0-0.001 0-0.002 0-0.001 0-0.002 0-0.001 0-0.002 0-0.001 0-0.002 0-0.001 0-0.002 0-0.001 0-0.002 0-0.001 0-0.002 0-0.001 0-0.002 0-0.001 0-0.002 0-0.001 0-0.002 0-0.001 0-0.002 0-0.001 0-0.002 0-0.001 0-0.002 0-0.001 0-0.002 0-0.001 0-0.002 0-0.001 0-0.002 0-0.001 0-0.002 0-0.001 0-0.002 0-0.001 0-0.002 0-0.001 0-0.002 0-0.001 0-0.002 0-0.001 0-0.002 0-0.001 0-0.002 0-0.001 0-0.002 0-0.002 0-0.002c0-0.001 0-0.001 0-0.002s0-0.001 0-0.002 0-0.001 0-0.002 0-0.001 0-0.002 0-0.001 0-0.002 0-0.002 0-0.002 0-0.001 0-0.002 0-0.001 0-0.002 0-0.002 0-0.002 0-0.001 0-0.002 0-0.002 0-0.002 0-0.001 0-0.002 0-0.001 0-0.002 0-0.001 0-0.002 0-0.001 0-0.002 0-0.001 0-0.002 0-0.001 0-0.002 0-0.001 0-0.002 0-0.001 0-0.002 0-0.001 0-0.002 0-0.002 0-0.002 0-0.001 0-0.002 0-0.002 0-0.002h-1.778zM3.811 15.351c0.026 0.258 0.052 0.558 0.078 0.9l1.773-0.136c-0.027-0.352-0.054-0.665-0.082-0.94l-1.769 0.177zM17.145 21.822c0-2.271-0.46-4.14-1.53-5.452-1.099-1.347-2.715-1.957-4.679-1.957v1.778c1.583 0 2.627 0.476 3.301 1.303 0.703 0.861 1.13 2.253 1.13 4.328h1.778zM10.936 14.413c-1.964 0-3.58 0.61-4.679 1.957-1.070 1.312-1.53 3.181-1.53 5.452h1.778c0-2.075 0.427-3.467 1.13-4.328 0.675-0.827 1.718-1.303 3.301-1.303v-1.778zM4.727 21.822c0 2.296 0.459 4.183 1.527 5.508 1.097 1.361 2.715 1.981 4.682 1.981v-1.778c-1.579 0-2.622-0.48-3.298-1.319-0.705-0.875-1.133-2.288-1.133-4.392h-1.778zM10.936 29.311c1.967 0 3.585-0.62 4.682-1.981 1.068-1.325 1.527-3.212 1.527-5.508h-1.778c0 2.104-0.428 3.517-1.133 4.392-0.676 0.838-1.719 1.319-3.298 1.319v1.778z"></path>
</symbol>
<symbol id="icon-telegram" viewBox="0 0 34 32">
<path fill="#039be5" style="fill: var(--color1, #039be5)" d="M16.842 31.495c9.302 0 16.842-6.981 16.842-15.592s-7.54-15.592-16.842-15.592c-9.302 0-16.842 6.981-16.842 15.592s7.54 15.592 16.842 15.592z"></path>
<path fill="#fff" style="fill: var(--color2, #fff)" d="M7.707 15.565l16.239-5.796c0.754-0.252 1.412 0.17 1.168 1.225l0.001-0.001-2.765 12.059c-0.205 0.855-0.754 1.063-1.521 0.66l-4.211-2.873-2.031 1.811c-0.225 0.208-0.414 0.383-0.849 0.383l0.299-3.967 7.804-6.527c0.34-0.277-0.076-0.433-0.524-0.157l-9.644 5.621-4.157-1.201c-0.902-0.265-0.922-0.836 0.191-1.238z"></path>
</symbol>
<symbol id="icon-viber" viewBox="0 0 34 32">
<path fill="#6f3faa" style="fill: var(--color3, #6f3faa)" d="M16.842 31.495c9.302 0 16.842-6.981 16.842-15.592s-7.54-15.592-16.842-15.592c-9.302 0-16.842 6.981-16.842 15.592s7.54 15.592 16.842 15.592z"></path>
<path fill="#512d84" style="fill: var(--color4, #512d84)" d="M24.149 8.865c-4.099-0.917-8.206-1.989-12.41-0.627-2.722 0.945-2.722 3.675-2.608 5.985 0 0.63-0.794 1.47-0.454 2.205 0.681 2.1 1.248 4.2 3.629 5.25 0.34 0.21 0 0.63 0.227 0.945-0.113 0-0.34 0.105-0.34 0.21 0 0.503 0.244 1.273 0.082 1.769l7.237 6.697c7.44-1.097 13.255-6.704 14.073-13.699l-9.436-8.736z"></path>
<path fill="#fff" style="fill: var(--color2, #fff)" d="M25.752 11.269l-0.006-0.021c-0.45-1.684-2.479-3.491-4.342-3.867l-0.021-0.004c-3.014-0.532-6.069-0.532-9.082 0l-0.022 0.004c-1.863 0.376-3.891 2.183-4.342 3.867l-0.005 0.021c-0.556 2.352-0.556 4.737 0 7.089l0.005 0.021c0.431 1.612 2.309 3.337 4.103 3.811v1.88c0 0.68 0.896 1.015 1.405 0.524l2.058-1.98c0.446 0.023 0.893 0.036 1.339 0.036 1.517 0 3.035-0.133 4.541-0.399l0.021-0.004c1.863-0.376 3.892-2.183 4.342-3.868l0.006-0.021c0.556-2.352 0.556-4.737 0-7.090zM24.123 18.018c-0.3 1.099-1.841 2.465-3.065 2.717-1.602 0.282-3.217 0.403-4.831 0.361-0.032-0.001-0.063 0.011-0.085 0.032-0.229 0.218-1.502 1.428-1.502 1.428l-1.598 1.518c-0.117 0.113-0.322 0.036-0.322-0.12v-3.115c0-0.051-0.040-0.095-0.094-0.105-0-0-0.001-0-0.001-0-1.224-0.252-2.764-1.618-3.065-2.717-0.501-2.126-0.501-4.281 0-6.407 0.301-1.099 1.841-2.465 3.065-2.717 2.798-0.493 5.636-0.493 8.434 0 1.225 0.252 2.764 1.618 3.065 2.717 0.501 2.126 0.501 4.281-0 6.407z"></path>
<path fill="#fff" style="fill: var(--color2, #fff)" d="M19.505 19.456c-0.188-0.053-0.367-0.088-0.534-0.152-1.726-0.663-3.314-1.518-4.572-2.829-0.715-0.745-1.275-1.587-1.749-2.477-0.225-0.422-0.414-0.861-0.606-1.297-0.176-0.398 0.083-0.808 0.356-1.108 0.256-0.281 0.585-0.496 0.942-0.655 0.278-0.124 0.553-0.052 0.756 0.166 0.439 0.472 0.843 0.968 1.17 1.516 0.201 0.337 0.146 0.748-0.218 0.977-0.088 0.056-0.169 0.121-0.252 0.184-0.072 0.055-0.14 0.111-0.19 0.185-0.091 0.136-0.095 0.298-0.037 0.446 0.449 1.143 1.206 2.031 2.449 2.51 0.199 0.077 0.398 0.166 0.627 0.141 0.384-0.041 0.508-0.431 0.777-0.635 0.263-0.199 0.598-0.202 0.882-0.036s0.557 0.344 0.83 0.524c0.268 0.177 0.534 0.349 0.781 0.551 0.237 0.194 0.319 0.448 0.186 0.71-0.245 0.481-0.601 0.881-1.115 1.137-0.145 0.072-0.318 0.095-0.482 0.142-0.188-0.053 0.164-0.047 0 0z"></path>
<path fill="#fff" style="fill: var(--color2, #fff)" d="M16.847 10.387c2.257 0.059 4.111 1.445 4.509 3.511 0.068 0.352 0.092 0.712 0.122 1.069 0.013 0.15-0.079 0.293-0.254 0.295-0.181 0.002-0.262-0.138-0.274-0.288-0.023-0.297-0.039-0.596-0.084-0.891-0.234-1.557-1.574-2.845-3.248-3.121-0.252-0.042-0.509-0.052-0.765-0.077-0.161-0.016-0.372-0.025-0.408-0.21-0.030-0.156 0.112-0.28 0.272-0.287 0.043-0.002 0.087-0.001 0.131-0 2.257 0.059-0.044-0 0 0z"></path>
<path fill="#fff" style="fill: var(--color2, #fff)" d="M20.277 14.503c-0.004 0.026-0.006 0.088-0.022 0.145-0.060 0.21-0.404 0.236-0.483 0.024-0.023-0.063-0.027-0.134-0.027-0.202-0.001-0.443-0.105-0.885-0.346-1.27-0.248-0.396-0.627-0.729-1.071-0.93-0.269-0.122-0.559-0.197-0.853-0.242-0.129-0.020-0.259-0.032-0.388-0.048-0.157-0.020-0.24-0.113-0.233-0.255 0.007-0.134 0.113-0.23 0.27-0.222 0.518 0.027 1.018 0.131 1.479 0.357 0.936 0.459 1.471 1.184 1.628 2.152 0.007 0.044 0.018 0.087 0.022 0.131 0.009 0.109 0.014 0.217 0.023 0.361-0.004 0.026-0.009-0.143 0 0z"></path>
<path fill="#fff" style="fill: var(--color2, #fff)" d="M18.873 14.453c-0.189 0.003-0.29-0.094-0.309-0.254-0.013-0.112-0.024-0.225-0.053-0.334-0.057-0.214-0.18-0.413-0.374-0.544-0.092-0.062-0.196-0.107-0.305-0.136-0.138-0.037-0.282-0.027-0.42-0.058-0.15-0.034-0.233-0.147-0.21-0.277 0.021-0.119 0.146-0.211 0.286-0.202 0.875 0.058 1.501 0.477 1.59 1.431 0.006 0.067 0.014 0.138-0.002 0.203-0.028 0.11-0.116 0.165-0.202 0.171-0.189 0.003 0.086-0.005 0 0z"></path>
<path fill="#d1d1d1" style="fill: var(--color5, #d1d1d1)" d="M25.752 11.269l-0.006-0.021c-0.252-0.944-1.001-1.927-1.938-2.675l-1.267 1.040c0.753 0.556 1.399 1.326 1.582 1.997 0.501 2.126 0.501 4.281 0 6.407-0.3 1.099-1.841 2.465-3.065 2.717-1.602 0.282-3.217 0.403-4.831 0.361-0.032-0.001-0.063 0.011-0.085 0.032-0.229 0.218-1.502 1.428-1.502 1.428l-1.598 1.518c-0.117 0.113-0.322 0.036-0.322-0.12v-3.115c0-0.051-0.040-0.095-0.094-0.105-0 0-0.001-0-0.001-0-0.696-0.143-1.493-0.647-2.107-1.256l-1.252 1.027c0.782 0.788 1.79 1.424 2.774 1.684v1.88c0 0.68 0.896 1.015 1.405 0.524l2.058-1.98c0.446 0.023 0.893 0.036 1.339 0.036 1.517 0 3.035-0.133 4.541-0.399l0.021-0.004c1.863-0.376 3.892-2.183 4.342-3.867l0.006-0.021c0.556-2.352 0.556-4.738 0-7.090z"></path>
<path fill="#fff" style="fill: var(--color2, #fff)" d="M19.505 19.456c0.164-0.047-0.188-0.053 0 0v0z"></path>
<path fill="#d1d1d1" style="fill: var(--color5, #d1d1d1)" d="M20.916 17.466c-0.247-0.201-0.514-0.374-0.781-0.551-0.273-0.18-0.547-0.358-0.83-0.524s-0.619-0.163-0.881 0.036c-0.269 0.204-0.393 0.593-0.777 0.635-0.229 0.025-0.429-0.064-0.627-0.141-0.764-0.294-1.344-0.745-1.783-1.313l-0.932 0.764c0.032 0.034 0.062 0.069 0.094 0.102 1.258 1.311 2.846 2.166 4.572 2.829 0.166 0.064 0.346 0.1 0.534 0.152-0.188-0.053 0.164-0.047 0 0 0.164-0.047 0.337-0.070 0.482-0.142 0.514-0.256 0.87-0.656 1.115-1.137 0.134-0.263 0.052-0.517-0.185-0.71z"></path>
<path fill="#fff" style="fill: var(--color2, #fff)" d="M16.852 10.387c-0.002 0-0.004-0-0.006-0s0 0 0.006 0z"></path>
<path fill="#fff" style="fill: var(--color2, #fff)" d="M16.847 10.387c0.002 0 0.004 0 0.006 0 0.125 0.004 2.163 0.056-0.006-0z"></path>
<path fill="#d1d1d1" style="fill: var(--color5, #d1d1d1)" d="M20.085 11.63l-0.397 0.326c0.624 0.562 1.055 1.307 1.178 2.127 0.044 0.295 0.060 0.594 0.084 0.891 0.012 0.15 0.093 0.29 0.274 0.288 0.175-0.002 0.267-0.145 0.254-0.295-0.030-0.357-0.054-0.717-0.122-1.069-0.174-0.904-0.627-1.679-1.271-2.268z"></path>
<path fill="#d1d1d1" style="fill: var(--color5, #d1d1d1)" d="M20.232 14.011c-0.114-0.705-0.43-1.281-0.955-1.719l-0.396 0.325c0.205 0.168 0.382 0.366 0.518 0.584 0.241 0.385 0.345 0.827 0.346 1.27 0 0.068 0.004 0.139 0.027 0.202 0.079 0.212 0.423 0.186 0.483-0.024 0.017-0.058 0.019-0.119 0.022-0.145-0.004 0.026-0.009-0.143 0 0-0.009-0.143-0.015-0.252-0.023-0.361-0.003-0.044-0.015-0.088-0.022-0.131z"></path>
<path fill="#fff" style="fill: var(--color2, #fff)" d="M20.277 14.503c-0.009-0.143-0.004 0.026 0 0v0z"></path>
<path fill="#fff" style="fill: var(--color2, #fff)" d="M18.873 14.453c0.003-0 0.006-0.002 0.009-0.002-0.008 0-0.020 0-0.033 0.001 0.008 0 0.016 0.001 0.024 0.001z"></path>
<path fill="#fff" style="fill: var(--color2, #fff)" d="M18.873 14.453c-0.009 0-0.016-0.001-0.024-0.001-0.041 0.001-0.083 0.003 0.024 0.001z"></path>
<path fill="#fff" style="fill: var(--color2, #fff)" d="M18.882 14.451c-0.003 0-0.006 0.002-0.009 0.002 0.022-0.002 0.020-0.002 0.009-0.002z"></path>
<path fill="#d1d1d1" style="fill: var(--color5, #d1d1d1)" d="M18.475 12.951l-0.403 0.331c0.022 0.012 0.044 0.026 0.065 0.040 0.195 0.131 0.318 0.33 0.374 0.544 0.029 0.109 0.040 0.222 0.053 0.334 0.019 0.153 0.113 0.247 0.285 0.253 0.013-0 0.025-0.001 0.033-0.001 0.083-0.009 0.166-0.062 0.193-0.169 0.016-0.064 0.009-0.136 0.002-0.203-0.050-0.533-0.268-0.899-0.603-1.128z"></path>
</symbol>
<symbol id="icon-close-btn" viewBox="0 0 32 32">
<path d="M32 3.223l-3.223-3.223-12.777 12.777-12.777-12.777-3.223 3.223 12.777 12.777-12.777 12.777 3.223 3.223 12.777-12.777 12.777 12.777 3.223-3.223-12.777-12.777 12.777-12.777z"></path>
</symbol>
<symbol id="icon-whatsapp" viewBox="0 0 34 32">
<path fill="#eceff1" style="fill: var(--color6, #eceff1)" d="M28.8 4.792c-3.2-2.864-7.411-4.481-11.895-4.481-12.87 0-20.952 12.909-14.525 23.178l-2.38 8.007 8.891-2.147c3.874 1.937 7.047 1.766 8.022 1.88 14.924 0 22.352-16.715 11.865-26.386l0.021-0.051z"></path>
<path fill="#4caf50" style="fill: var(--color7, #4caf50)" d="M16.936 28.573l-0.008-0.001h-0.022c-4.466 0-7.319-1.958-7.6-2.071l-5.263 1.267 1.411-4.736-0.335-0.487c-1.389-2.048-2.128-4.406-2.128-6.835 0-11.425 15.081-17.138 23.808-9.063 8.706 7.991 2.594 21.927-9.861 21.927z"></path>
<path fill="#fafafa" style="fill: var(--color8, #fafafa)" d="M24.571 18.901l-0.013 0.098c-0.422-0.195-2.48-1.127-2.863-1.255-0.86-0.295-0.618-0.047-2.269 1.705-0.246 0.253-0.49 0.273-0.907 0.098-0.421-0.195-1.773-0.604-3.373-1.93-1.246-1.033-2.083-2.3-2.33-2.69-0.411-0.658 0.449-0.751 1.232-2.123 0.14-0.273 0.069-0.487-0.035-0.681-0.105-0.195-0.943-2.105-1.294-2.866-0.337-0.759-0.684-0.663-0.943-0.663-0.808-0.065-1.399-0.055-1.92 0.447-2.265 2.305-1.694 4.683 0.244 7.211 3.809 4.615 5.839 5.465 9.549 6.645 1.002 0.295 1.916 0.253 2.639 0.157 0.806-0.118 2.48-0.937 2.829-1.853 0.358-0.916 0.358-1.676 0.253-1.852-0.104-0.175-0.379-0.273-0.8-0.448z"></path>
</symbol>
<symbol id="icon-close" viewBox="0 0 32 32">
<path d="M31.439 3.166l-3.166-3.166-12.553 12.553-12.553-12.553-3.166 3.166 12.553 12.553-12.553 12.553 3.166 3.166 12.553-12.553 12.553 12.553 3.166-3.166-12.553-12.553 12.553-12.553z"></path>
</symbol>
<symbol id="icon-menu" viewBox="0 0 48 32">
<path d="M0 5.333v-5.333h48v5.333h-48zM0 18.667h48v-5.333h-48v5.333zM0 32h48v-5.333h-48v5.333z"></path>
</symbol>
</defs>
</svg>
